<?xml version="1.0" encoding="iso-8859-1"?>
<!-- Generator: Adobe Illustrator 23.0.2, SVG Export Plug-In . SVG Version: 6.00 Build 0)  -->
<svg version="1.1" id="Layer_1" xmlns="http://www.w3.org/2000/svg" xmlns:xlink="http://www.w3.org/1999/xlink" x="0px" y="0px"
	 width="84.257px" height="84.257px" viewBox="0 0 84.257 84.257" style="enable-background:new 0 0 84.257 84.257;"
	 xml:space="preserve">
<rect id="Rectangle_35" style="fill:#2767B0;" width="84.257" height="84.257"/>
<path id="Path_312" style="fill:#FFFFFF;" d="M41.453,15.448c0.46-0.231,1.002-0.231,1.462,0l22.211,12.816
	c0.43,0.282,0.701,0.751,0.73,1.265l-0.027,25.667c-0.029,0.514-0.301,0.984-0.732,1.265L42.861,69.275
	c-0.459,0.232-1.002,0.232-1.461,0L19.188,56.414c-0.43-0.283-0.701-0.752-0.73-1.266l0.027-25.667
	c0.028-0.514,0.3-0.983,0.732-1.264L41.453,15.448z M22.453,30.118c-0.431,0.282-0.703,0.751-0.732,1.265l-0.018,16.909
	c0,0.465,0.19,0.515,0.422,0.114l15.319-26.439c0.233-0.4,0.094-0.54-0.309-0.309L22.453,30.118z M62.58,31.425
	c-0.028-0.514-0.299-0.984-0.729-1.267l-14.71-8.532c-0.4-0.233-0.54-0.094-0.31,0.309l15.31,26.64
	c0.232,0.4,0.421,0.352,0.421-0.113L62.58,31.425z M41.404,65.519c0.46,0.232,1.002,0.232,1.462,0L57.507,57.1
	c0.4-0.232,0.352-0.421-0.113-0.421l-30.5-0.032c-0.465,0-0.515,0.19-0.113,0.421L41.404,65.519z M60.353,53.404
	c0.465,0,0.654-0.328,0.424-0.731L42.604,21.066c-0.08-0.233-0.333-0.357-0.566-0.278c-0.131,0.045-0.233,0.147-0.278,0.278
	L23.444,52.635c-0.233,0.4-0.043,0.73,0.42,0.731L60.353,53.404z"/>
</svg>
